<?xml version="1.0" standalone="no"?>
<!DOCTYPE svg PUBLIC "-//W3C//DTD SVG 20010904//EN"
 "http://www.w3.org/TR/2001/REC-SVG-20010904/DTD/svg10.dtd">
<svg version="1.0" xmlns="http://www.w3.org/2000/svg"
 width="147.000000pt" height="147.000000pt" viewBox="0 0 147.000000 147.000000"
 preserveAspectRatio="xMidYMid meet">
<metadata>
Created by potrace 1.11, written by Peter Selinger 2001-2013
</metadata>
<g transform="translate(0.000000,147.000000) scale(0.100000,-0.100000)"
fill="#000000" stroke="none">
<path d="M839 1455 c-13 -8 -37 -20 -54 -28 -39 -19 -106 -78 -99 -89 3 -4 -1
-8 -8 -8 -17 -1 -79 -97 -119 -186 -25 -56 -41 -76 -74 -97 -70 -45 -151 -146
-174 -217 -15 -49 -20 -152 -9 -214 8 -47 63 -146 81 -146 4 0 7 -9 7 -20 0
-18 -7 -20 -80 -20 -78 0 -132 -16 -177 -52 -23 -19 107 -172 202 -238 145
-100 284 -141 460 -136 111 4 200 24 290 66 104 49 100 41 70 145 -14 50 -39
110 -55 134 l-28 44 23 25 c38 41 79 181 90 307 2 33 -32 92 -75 127 -49 39
-80 86 -80 122 0 18 -7 29 -23 35 -12 5 -36 22 -52 39 -17 17 -55 40 -86 51
-33 13 -56 27 -56 36 0 8 2 13 4 11 2 -2 30 23 63 55 33 32 60 55 60 52 0 -3
8 1 18 10 27 24 112 43 217 48 58 3 71 17 39 41 -29 24 -48 25 -127 8 -42 -8
-83 -28 -148 -72 -52 -35 -87 -64 -83 -70 4 -6 2 -8 -4 -4 -6 3 -25 -13 -43
-38 -32 -45 -32 -45 -93 -45 -34 0 -76 -4 -93 -10 -43 -13 -42 -4 4 73 51 84
99 127 198 176 46 23 89 47 95 54 29 36 -31 59 -81 31z"/>
</g>
</svg>
